<?xml version="1.0" encoding="UTF-8"?>
<svg xmlns="http://www.w3.org/2000/svg" version="1.1" viewBox="0 0 841.9 595.3">
  <defs>
    <style>
      .cls-1 {
        fill: #070707;
      }
    </style>
  </defs>
  <!-- Generator: Adobe Illustrator 28.7.5, SVG Export Plug-In . SVG Version: 1.2.0 Build 176)  -->
  <g>
    <g id="Ebene_1">
      <g>
        <path class="cls-1" d="M122.4,226.2c3.2.4,6.4.7,9.6,1.3,32.7,5.7,58.9,31.4,65.2,64.2,7.6,39-14.1,77.9-51.2,91.7-46.7,17.3-97.7-10.9-107.8-59.7-.7-3.3-.9-6.7-1.4-10,0-.5-.2-1-.3-1.5,0-3.2,0-6.4,0-9.5,0-.4.2-.9.3-1.3.8-10.7,3.4-20.8,8.4-30.3,12.6-23.9,32.2-38.5,58.8-43.5,2.9-.5,5.9-.8,8.8-1.2,3.2,0,6.4,0,9.5,0ZM181.3,307.3c0-35.2-28.6-63.7-63.7-63.7-35.2,0-63.7,28.5-63.7,63.7,0,35.1,28.6,63.7,63.7,63.7,35,0,63.8-28.7,63.7-63.7Z"/>
        <path class="cls-1" d="M824.2,332.9c-.1.5-.3,1.1-.4,1.6-1.6,6.7-6,10.9-12.3,12.7-10.1,3-20,2.2-29.8-1.8-2.8-1.1-4.3-2.8-3.9-6.1.4-2.8,0-5.7,0-8.6,0-.5,0-1,.1-1.9.6.5,1.1.8,1.4,1.1,7.3,6.5,16,8.2,25.4,6.6,1.5-.3,3.1-1.1,4.3-2.2,3.3-2.8,2.5-7.9-1.6-9.2-3.4-1-7-1.2-10.5-1.9-3.2-.6-6.4-1-9.4-2-6.3-2.1-9.4-6.6-9.8-13.2-.7-11.5,6.3-17.8,14.8-20,8.7-2.2,17.2-1.3,25.5,2,1.8.7,2.6,1.6,2.5,3.7-.2,3.3,0,6.6,0,9.8,0,.5,0,1-.1,1.7-.6-.4-.9-.6-1.2-.9-6.5-5.4-14-6.6-22-5-1.8.4-3.7,1.6-5,3-2.6,2.7-1.5,6.6,2.1,7.6,2.6.7,5.3.8,8,1.3,3.9.7,7.9,1.1,11.7,2.3,5.8,1.8,9.1,6.1,10,12.1,0,.3.2.7.3,1v6.2Z"/>
        <path class="cls-1" d="M278.1,347.7h-15.1v-80.8c.4,0,.9,0,1.3,0,11.2,0,22.4-.2,33.5,0,4.2,0,8.4.7,12.4,1.9,10.1,2.9,15.3,10,16.6,20.3.6,4.6.4,9.1-.7,13.6-2.4,9.4-8.7,14.9-17.9,17-3.9.9-8,1.2-12,1.3-5.3.2-10.7,0-16,0q-2.2,0-2.2,2.1c0,7.5,0,15.1,0,22.6v1.9ZM278.3,280v27.6c.6,0,1.2,0,1.7,0,4.9,0,9.7,0,14.6,0,2.2,0,4.4-.1,6.6-.5,5.1-.9,9-3.4,10.2-8.8.4-1.7.5-3.5.4-5.2,0-6.6-3.5-11.3-10-12-7.7-.9-15.6-.7-23.6-1Z"/>
        <path class="cls-1" d="M409.9,288.3h11.2c.1,2.7.3,5.5.4,8.3.3-.2.4-.2.5-.3,5.5-7,13-9.5,21.6-9.3,14.5.2,26,10.2,28.3,24.6,1.3,7.9.5,15.6-3.4,22.7-5.1,9.3-13.2,14-23.7,14.7-5.7.3-11.3-.5-16.3-3.5-1.8-1.1-3.4-2.5-5.3-3.9,0,4.7,0,9.3,0,13.9s0,9.2,0,13.9h-13.4v-81ZM422.8,318.2c0,.8,0,1.8.2,2.7,1,6.8,4.3,12.1,10.9,14.7,6.5,2.6,13,2,18.5-2.6,5.1-4.2,6.9-9.9,6.5-16.3-.8-13.9-12.3-20.1-23.7-16.9-7.6,2.2-12.4,9.4-12.4,18.4Z"/>
        <path class="cls-1" d="M715,339.5c-.1,2.7-.3,5.4-.4,8.1h-11.2v-80.7h13.3v27.8c.4-.2.6-.2.7-.3,6.1-6.1,13.7-7.7,21.9-7.1,15.5,1.2,25.9,13.4,26.7,28.9.4,8.9-1.8,17-7.9,23.7-5.1,5.7-11.7,8.6-19.2,9-5.4.4-10.6-.4-15.5-2.8-3.2-1.6-5.9-3.9-8.3-6.6ZM716.4,318.5c.1,1.1.2,2.5.4,3.8,1.4,6.7,5.1,11.7,11.7,13.7,6.9,2.1,13.3,1.1,18.7-4.1,4.2-4.1,5.6-9.4,5.3-15.2-.9-15.6-15.2-20.7-25.8-16-7.4,3.3-10.1,9.7-10.4,17.7Z"/>
        <path class="cls-1" d="M676.6,296.8c.2-2.8.4-5.5.6-8.3h11v59.2h-10.9c-.1-2.7-.3-5.4-.4-8.3-.3.2-.5.2-.6.4-4.4,5.7-10.5,8.4-17.5,9.1-8.2.8-15.7-.9-22.2-6.2-6.7-5.5-10-12.9-10.7-21.4-.6-7,.6-13.7,4.1-19.9,5.8-10.1,17-15.6,28.6-14.2,7.1.9,13.1,3.4,17.6,9.2,0,.1.2.1.5.3ZM639.3,318.2c0,.7,0,1.4,0,2.1.8,7.3,4.2,12.9,11.3,15.5,7.1,2.5,13.9,1.6,19.3-3.9,5.2-5.3,6.2-11.9,4.7-18.9-1.5-6.8-5.5-11.6-12.4-13.3-7.2-1.8-13.8-.4-18.8,5.6-3.1,3.7-4.2,8.1-4.1,12.9Z"/>
        <path class="cls-1" d="M381.8,288.1c4.3,0,8.4,0,12.5,0,.3,0,.7.5.9.9.1.2,0,.5,0,.8,0,18.8,0,37.5,0,56.3v1.5h-11.3c-.2-2.8-.4-5.7-.6-8.8-.3.3-.5.4-.6.5-4,6.3-9.9,9.1-17.1,9.6-4.1.3-8.1,0-12-1.5-8.2-3.1-12.3-9.5-13.8-17.8-.4-2.4-.6-4.8-.6-7.2,0-10.8,0-21.6,0-32.5,0-.5,0-1.1,0-1.8h13.4c0,.6,0,1.2,0,1.8,0,10.3,0,20.6,0,30.9,0,1.8,0,3.6.4,5.3,1.8,8.8,8.6,11.4,15.5,10.6,7.2-.9,11.8-5.7,12.7-13.3.2-1.6.3-3.3.3-4.9,0-9.5,0-19.1,0-28.6v-1.9Z"/>
        <path class="cls-1" d="M572,334.3h45.2v13.4h-60.2v-80.7h15v67.4Z"/>
        <path class="cls-1" d="M513.2,266.8h13.1v80.8h-13.1v-80.8Z"/>
        <path class="cls-1" d="M484.3,288.3h13.2v59.3h-13.2v-59.3Z"/>
        <path class="cls-1" d="M497.6,266.9v13.1h-13.2v-13.1h13.2Z"/>
        <path class="cls-1" d="M175.6,307.3c0,32-26,58-58,58-31.9,0-57.9-26-57.9-57.9,0-31.9,26.2-58.1,58-58,32,0,57.9,26,57.9,58ZM158.2,307.3c0-22.5-18.1-40.6-40.6-40.6-22.4,0-40.5,18-40.5,40.5,0,22.5,18,40.6,40.5,40.6,22.4,0,40.6-18.1,40.6-40.5Z"/>
      </g>
    </g>
  </g>
</svg>