<?xml version="1.0" encoding="UTF-8"?>
<svg xmlns="http://www.w3.org/2000/svg" version="1.1" viewBox="0 0 841.9 595.3">
  <defs>
    <style>
      .cls-1 {
        fill: #070707;
      }
    </style>
  </defs>
  <!-- Generator: Adobe Illustrator 28.7.5, SVG Export Plug-In . SVG Version: 1.2.0 Build 176)  -->
  <g>
    <g id="Ebene_1">
      <g>
        <path class="cls-1" d="M321.9,438.2c-2.2-.2-4.4-.4-6.7-.7-15.3-1.9-29.2-7.3-41.6-16.5-19.2-14.3-31.1-33.3-34.9-56.9-4.2-26.7,2.5-50.7,19.9-71.4,13.8-16.3,31.4-26.5,52.5-29.9,28.6-4.6,53.8,3,75.1,22.6,14.8,13.6,23.9,30.5,26.9,50.3,4.3,28.5-3.4,53.7-23.1,74.8-13.5,14.5-30.3,23.3-50,26.5-3.1.5-6.3.7-9.5,1-.2,0-.4,0-.6.1h-8.2ZM282.2,349.7c0,23.9,19.4,43.6,43.7,43.6,24.6,0,43.5-20,43.6-43.6,0-23.8-19.6-43.6-43.3-43.6-24.4,0-44,19.4-44,43.6Z"/>
        <path class="cls-1" d="M757.4,199.1c-.4,1.9-.7,3.9-1.2,5.7-3.2,11.2-13,19.3-24.5,20.7-7.6.9-14.6-1-21.3-4.2-2.4-1.2-4.8-2.4-7.3-3.4-9-3.8-16.4-1.9-22.4,5.8-2.5,3.3-4.8,6.8-7.4,10-5.1,6.6-11.7,10.8-20,12.2-15,2.7-29.4-6.8-33.2-21.3-1.9-7.4-1.6-14.6,2-21.4,4.9-9.4,12.8-14.6,23.3-15.9,6.6-.8,12.8.9,18.8,3.5,3.7,1.6,7.4,3.3,11.1,4.7,7.3,2.7,13.6,1,18.7-4.9,3-3.5,5.7-7.4,8.6-11,5-6.3,11.2-10.8,19.3-12.6,15.1-3.3,30.7,6.4,34.2,21.4.4,1.9.8,3.9,1.2,5.8v4.8Z"/>
        <path class="cls-1" d="M436.9,217.6h43.1v57.4c1.2-.6,2.2-1.1,3.3-1.5,8.7-4.1,17.8-7.1,27.4-8.1,39.6-4.1,76.2,16.7,89.2,56.4,2.7,8.3,4.1,16.8,4.5,25.5.6,15.4-2,30.2-8.8,44.2-10,20.4-25.7,34.4-47.3,41.7-8.8,3-17.9,4.4-27.2,4.4-10.3,0-20.6,0-30.9-.2-8-.2-15.9-1-23.5-3.4-13.8-4.3-22.3-13.6-26.5-27.2-2.1-6.8-3-13.7-3.2-20.8,0-2.4-.1-4.8-.1-7.2,0-23.7,0-47.3,0-71,0-29.6,0-59.2,0-88.8,0-.5,0-.9,0-1.5ZM481.5,357.4s0,0-.1,0c0,4.2-.1,8.5,0,12.7.1,3.3.5,6.5,1.1,9.7,1.3,6.5,5.2,10.5,11.8,11.8,2,.4,3.9.8,5.9.9,6.1.2,12.1.4,18.2.4,3,0,6-.1,8.9-.6,13.9-2.4,24.1-9.8,30-22.7,4.6-10.2,5.1-20.8,2.3-31.5-3.7-14.1-12.2-24.1-26.5-28.6-7.5-2.3-15.1-2.1-22.8-.7-6.7,1.2-12.9,3.7-18,8.4-7.2,6.5-10.3,15-10.8,24.4-.3,5.3,0,10.5,0,15.8Z"/>
        <path class="cls-1" d="M216.8,270.4v43.5h-60.6c0,.5,0,.9,0,1.4,0,12.3,0,24.5,0,36.8,0,5.7,0,11.3,0,17,.1,4.6.7,9.2,2.5,13.6,2.6,6.5,7.5,10.2,14.3,11,3.7.5,7.5.5,11.2.5,11,0,21.9,0,32.9,0s.9,0,1.5,0v40.3c-1.8,0-3.7,0-5.6,0-12.1,0-24.2,0-36.3-.1-10.3-.2-20.5-1-30.5-3.7-15.7-4.2-25.5-14.6-30.9-29.5-2.5-6.8-3.2-14-3.2-21.2,0-21.5,0-43.1,0-64.6v-1.7h-34.8v-43.2c.5,0,1,0,1.5,0,10.6,0,21.2,0,31.8,0q1.5,0,1.5-1.6c0-15.1,0-30.2,0-45.3v-1.6h44.2v48.5h60.4Z"/>
        <path class="cls-1" d="M627.6,433.8v-166h43.7c0,.4,0,.8,0,1.3,0,54.5,0,108.9,0,163.4,0,1.1-.3,1.4-1.4,1.4-13.7,0-27.4,0-41.1,0-.4,0-.8,0-1.2,0Z"/>
        <path class="cls-1" d="M749.7,267.8v166h-43.7v-166h43.7Z"/>
      </g>
    </g>
  </g>
</svg>