<svg width="367" height="274" viewBox="0 0 367 274" fill="none" xmlns="http://www.w3.org/2000/svg">
<path d="M14.4334 218.44C23.4076 192.202 23.4076 71.2572 14.4334 45.0187C0.519224 6.39101 -10.2925 -7.73632 16.3507 5.05616C65.7625 27.9714 115.174 27.9714 164.599 5.05616C191.256 -7.73632 180.431 6.39101 166.517 45.0187C157.542 71.2572 157.542 192.202 166.517 218.44C180.431 257.068 191.256 271.195 164.599 258.403C115.188 235.488 65.7758 235.488 16.3507 258.403C-10.3058 271.195 0.519224 257.068 14.4334 218.44Z" fill="#B128C3"/>
<path d="M124.988 102.014C128.297 102.014 130.98 98.1788 130.98 93.4483C130.98 88.7177 128.297 84.8828 124.988 84.8828C121.679 84.8828 118.996 88.7177 118.996 93.4483C118.996 98.1788 121.679 102.014 124.988 102.014Z" fill="#ECEBE9" stroke="#B128C3" stroke-miterlimit="10"/>
<path d="M140.233 102.014C143.542 102.014 146.225 98.1788 146.225 93.4483C146.225 88.7177 143.542 84.8828 140.233 84.8828C136.924 84.8828 134.241 88.7177 134.241 93.4483C134.241 98.1788 136.924 102.014 140.233 102.014Z" fill="#ECEBE9" stroke="#B128C3" stroke-miterlimit="10"/>
<path d="M177.79 170.959C190.135 158.067 194.712 141.947 188.015 134.953C181.318 127.959 165.881 132.74 153.537 145.631C141.193 158.522 136.615 174.642 143.312 181.637C150.01 188.631 165.446 183.85 177.79 170.959Z" fill="#B128C3"/>
<path d="M134.937 124.772C122.914 130.464 122.099 114.482 122.099 114.482" stroke="#ECEBE9" stroke-linecap="round" stroke-linejoin="round"/>
<path d="M303.019 195.799C303.019 246.844 402.361 274 353.469 274C105.944 274 125.983 246.858 125.983 195.799C125.983 144.74 165.608 103.359 214.501 103.359C263.393 103.359 303.019 144.74 303.019 195.799Z" fill="#600DB4"/>
<path d="M165.77 182.145C169.079 182.145 171.762 178.311 171.762 173.58C171.762 168.849 169.079 165.015 165.77 165.015C162.461 165.015 159.778 168.849 159.778 173.58C159.778 178.311 162.461 182.145 165.77 182.145Z" fill="#ECEBE9" stroke="#600DB4" stroke-miterlimit="10"/>
<path d="M181.015 182.145C184.324 182.145 187.007 178.311 187.007 173.58C187.007 168.849 184.324 165.015 181.015 165.015C177.706 165.015 175.023 168.849 175.023 173.58C175.023 178.311 177.706 182.145 181.015 182.145Z" fill="#ECEBE9" stroke="#600DB4" stroke-miterlimit="10"/>
<path d="M159.789 218.327C166.487 211.333 161.909 195.213 149.565 182.322C137.22 169.43 121.784 164.65 115.087 171.644C108.389 178.638 112.967 194.758 125.311 207.649C137.656 220.541 153.092 225.321 159.789 218.327Z" fill="#B128C3"/>
</svg>
